<?xml version="1.0" encoding="UTF-8"?>
<!--Generator: Apple Native CoreSVG 175-->
<!DOCTYPE svg
PUBLIC "-//W3C//DTD SVG 1.1//EN"
       "http://www.w3.org/Graphics/SVG/1.1/DTD/svg11.dtd">
<svg version="1.1" xmlns="http://www.w3.org/2000/svg" xmlns:xlink="http://www.w3.org/1999/xlink" width="3300" height="2200">
 <!--glyph: "uni1002C3.medium", point size: 100.0, font version: "17.0d11e1", template writer version: "65.1"-->
 <g id="Notes">
  <rect height="2200" id="artboard" style="fill:white;opacity:1" width="3300" x="0" y="0"/>
  <line style="fill:none;stroke:black;opacity:1;stroke-width:0.5;" x1="263" x2="3036" y1="292" y2="292"/>
  <text style="stroke:none;fill:black;font-family:sans-serif;font-size:13;font-weight:bold;" transform="matrix(1 0 0 1 263 322)">Weight/Scale Variations</text>
  <text style="stroke:none;fill:black;font-family:sans-serif;font-size:13;text-anchor:middle;" transform="matrix(1 0 0 1 559.711 322)">Ultralight</text>
  <text style="stroke:none;fill:black;font-family:sans-serif;font-size:13;text-anchor:middle;" transform="matrix(1 0 0 1 856.422 322)">Thin</text>
  <text style="stroke:none;fill:black;font-family:sans-serif;font-size:13;text-anchor:middle;" transform="matrix(1 0 0 1 1153.13 322)">Light</text>
  <text style="stroke:none;fill:black;font-family:sans-serif;font-size:13;text-anchor:middle;" transform="matrix(1 0 0 1 1449.84 322)">Regular</text>
  <text style="stroke:none;fill:black;font-family:sans-serif;font-size:13;text-anchor:middle;" transform="matrix(1 0 0 1 1746.56 322)">Medium</text>
  <text style="stroke:none;fill:black;font-family:sans-serif;font-size:13;text-anchor:middle;" transform="matrix(1 0 0 1 2043.27 322)">Semibold</text>
  <text style="stroke:none;fill:black;font-family:sans-serif;font-size:13;text-anchor:middle;" transform="matrix(1 0 0 1 2339.98 322)">Bold</text>
  <text style="stroke:none;fill:black;font-family:sans-serif;font-size:13;text-anchor:middle;" transform="matrix(1 0 0 1 2636.69 322)">Heavy</text>
  <text style="stroke:none;fill:black;font-family:sans-serif;font-size:13;text-anchor:middle;" transform="matrix(1 0 0 1 2933.4 322)">Black</text>
  <line style="fill:none;stroke:black;opacity:1;stroke-width:0.5;" x1="263" x2="3036" y1="1903" y2="1903"/>
  <g transform="matrix(1 0 0 1 263 1933)">
   <path d="M9.24805 0.830078Q10.8691 0.830078 12.2949 0.214844Q13.7207-0.400391 14.8096-1.49414Q15.8984-2.58789 16.5186-4.01367Q17.1387-5.43945 17.1387-7.05078Q17.1387-8.66211 16.5186-10.0879Q15.8984-11.5137 14.8047-12.6074Q13.7109-13.7012 12.2852-14.3164Q10.8594-14.9316 9.23828-14.9316Q7.62695-14.9316 6.20117-14.3164Q4.77539-13.7012 3.69141-12.6074Q2.60742-11.5137 1.9873-10.0879Q1.36719-8.66211 1.36719-7.05078Q1.36719-5.43945 1.9873-4.01367Q2.60742-2.58789 3.69629-1.49414Q4.78516-0.400391 6.21094 0.214844Q7.63672 0.830078 9.24805 0.830078ZM9.24805-0.654297Q7.91992-0.654297 6.7627-1.14746Q5.60547-1.64062 4.73145-2.51953Q3.85742-3.39844 3.36426-4.56055Q2.87109-5.72266 2.87109-7.05078Q2.87109-8.37891 3.35938-9.54102Q3.84766-10.7031 4.72168-11.582Q5.5957-12.4609 6.75293-12.9541Q7.91016-13.4473 9.23828-13.4473Q10.5762-13.4473 11.7334-12.9541Q12.8906-12.4609 13.7695-11.582Q14.6484-10.7031 15.1465-9.54102Q15.6445-8.37891 15.6445-7.05078Q15.6445-5.72266 15.1514-4.56055Q14.6582-3.39844 13.7842-2.51953Q12.9102-1.64062 11.748-1.14746Q10.5859-0.654297 9.24805-0.654297ZM5.6543-7.05078Q5.6543-6.72852 5.85938-6.52832Q6.06445-6.32812 6.40625-6.32812L8.51562-6.32812L8.51562-4.20898Q8.51562-3.88672 8.71094-3.67676Q8.90625-3.4668 9.23828-3.4668Q9.56055-3.4668 9.77051-3.67676Q9.98047-3.88672 9.98047-4.20898L9.98047-6.32812L12.0898-6.32812Q12.4219-6.32812 12.627-6.52832Q12.832-6.72852 12.832-7.05078Q12.832-7.38281 12.627-7.58789Q12.4219-7.79297 12.0898-7.79297L9.98047-7.79297L9.98047-9.90234Q9.98047-10.2344 9.77051-10.4443Q9.56055-10.6543 9.23828-10.6543Q8.90625-10.6543 8.71094-10.4443Q8.51562-10.2344 8.51562-9.90234L8.51562-7.79297L6.40625-7.79297Q6.06445-7.79297 5.85938-7.58789Q5.6543-7.38281 5.6543-7.05078Z"/>
  </g>
  <g transform="matrix(1 0 0 1 281.867 1933)">
   <path d="M11.709 2.91016Q13.75 2.91016 15.5518 2.12891Q17.3535 1.34766 18.7305-0.0292969Q20.1074-1.40625 20.8887-3.20801Q21.6699-5.00977 21.6699-7.05078Q21.6699-9.0918 20.8887-10.8936Q20.1074-12.6953 18.7305-14.0723Q17.3535-15.4492 15.5469-16.2305Q13.7402-17.0117 11.6992-17.0117Q9.6582-17.0117 7.85645-16.2305Q6.05469-15.4492 4.68262-14.0723Q3.31055-12.6953 2.5293-10.8936Q1.74805-9.0918 1.74805-7.05078Q1.74805-5.00977 2.5293-3.20801Q3.31055-1.40625 4.6875-0.0292969Q6.06445 1.34766 7.86621 2.12891Q9.66797 2.91016 11.709 2.91016ZM11.709 1.25Q9.98047 1.25 8.47656 0.605469Q6.97266-0.0390625 5.83496-1.17676Q4.69727-2.31445 4.05762-3.81836Q3.41797-5.32227 3.41797-7.05078Q3.41797-8.7793 4.05762-10.2832Q4.69727-11.7871 5.83008-12.9297Q6.96289-14.0723 8.4668-14.7119Q9.9707-15.3516 11.6992-15.3516Q13.4277-15.3516 14.9316-14.7119Q16.4355-14.0723 17.5781-12.9297Q18.7207-11.7871 19.3652-10.2832Q20.0098-8.7793 20.0098-7.05078Q20.0098-5.32227 19.3701-3.81836Q18.7305-2.31445 17.5928-1.17676Q16.4551-0.0390625 14.9463 0.605469Q13.4375 1.25 11.709 1.25ZM7.17773-7.05078Q7.17773-6.69922 7.41211-6.47461Q7.64648-6.25 8.01758-6.25L10.8887-6.25L10.8887-3.36914Q10.8887-2.99805 11.1133-2.76855Q11.3379-2.53906 11.6895-2.53906Q12.0605-2.53906 12.29-2.76855Q12.5195-2.99805 12.5195-3.36914L12.5195-6.25L15.4004-6.25Q15.7715-6.25 16.001-6.47461Q16.2305-6.69922 16.2305-7.05078Q16.2305-7.42188 16.001-7.65137Q15.7715-7.88086 15.4004-7.88086L12.5195-7.88086L12.5195-10.752Q12.5195-11.1328 12.29-11.3623Q12.0605-11.5918 11.6895-11.5918Q11.3379-11.5918 11.1133-11.3574Q10.8887-11.123 10.8887-10.752L10.8887-7.88086L8.01758-7.88086Q7.63672-7.88086 7.40723-7.65137Q7.17773-7.42188 7.17773-7.05078Z"/>
  </g>
  <g transform="matrix(1 0 0 1 305.646 1933)">
   <path d="M14.9707 5.66406Q17.0605 5.66406 18.96 5.01465Q20.8594 4.36523 22.4512 3.19336Q24.043 2.02148 25.2197 0.429688Q26.3965-1.16211 27.0459-3.06641Q27.6953-4.9707 27.6953-7.05078Q27.6953-9.14062 27.0459-11.04Q26.3965-12.9395 25.2197-14.5312Q24.043-16.123 22.4512-17.2998Q20.8594-18.4766 18.9551-19.126Q17.0508-19.7754 14.9609-19.7754Q12.8711-19.7754 10.9717-19.126Q9.07227-18.4766 7.48535-17.2998Q5.89844-16.123 4.72168-14.5312Q3.54492-12.9395 2.90039-11.04Q2.25586-9.14062 2.25586-7.05078Q2.25586-4.9707 2.90527-3.06641Q3.55469-1.16211 4.72656 0.429688Q5.89844 2.02148 7.49023 3.19336Q9.08203 4.36523 10.9814 5.01465Q12.8809 5.66406 14.9707 5.66406ZM14.9707 3.84766Q13.1641 3.84766 11.5283 3.2959Q9.89258 2.74414 8.53516 1.74805Q7.17773 0.751953 6.17676-0.610352Q5.17578-1.97266 4.62891-3.6084Q4.08203-5.24414 4.08203-7.05078Q4.08203-8.86719 4.62891-10.5029Q5.17578-12.1387 6.17188-13.501Q7.16797-14.8633 8.52539-15.8594Q9.88281-16.8555 11.5186-17.4023Q13.1543-17.9492 14.9609-17.9492Q16.7773-17.9492 18.4131-17.4023Q20.0488-16.8555 21.4111-15.8594Q22.7734-14.8633 23.7695-13.501Q24.7656-12.1387 25.3174-10.5029Q25.8691-8.86719 25.8691-7.05078Q25.8789-5.24414 25.332-3.6084Q24.7852-1.97266 23.7842-0.610352Q22.7832 0.751953 21.4209 1.74805Q20.0586 2.74414 18.4229 3.2959Q16.7871 3.84766 14.9707 3.84766ZM9.19922-7.05078Q9.19922-6.66992 9.45801-6.4209Q9.7168-6.17188 10.1172-6.17188L14.0625-6.17188L14.0625-2.2168Q14.0625-1.81641 14.3115-1.55762Q14.5605-1.29883 14.9512-1.29883Q15.3516-1.29883 15.6104-1.55273Q15.8691-1.80664 15.8691-2.2168L15.8691-6.17188L19.8242-6.17188Q20.2246-6.17188 20.4785-6.4209Q20.7324-6.66992 20.7324-7.05078Q20.7324-7.46094 20.4785-7.71484Q20.2246-7.96875 19.8242-7.96875L15.8691-7.96875L15.8691-11.9141Q15.8691-12.3242 15.6104-12.583Q15.3516-12.8418 14.9512-12.8418Q14.5605-12.8418 14.3115-12.583Q14.0625-12.3242 14.0625-11.9141L14.0625-7.96875L10.1172-7.96875Q9.70703-7.96875 9.45312-7.71484Q9.19922-7.46094 9.19922-7.05078Z"/>
  </g>
  <text style="stroke:none;fill:black;font-family:sans-serif;font-size:13;font-weight:bold;" transform="matrix(1 0 0 1 263 1953)">Design Variations</text>
  <text style="stroke:none;fill:black;font-family:sans-serif;font-size:13;" transform="matrix(1 0 0 1 263 1971)">Symbols are supported in up to nine weights and three scales.</text>
  <text style="stroke:none;fill:black;font-family:sans-serif;font-size:13;" transform="matrix(1 0 0 1 263 1989)">For optimal layout with text and other symbols, vertically align</text>
  <text style="stroke:none;fill:black;font-family:sans-serif;font-size:13;" transform="matrix(1 0 0 1 263 2007)">symbols with the adjacent text.</text>
  <line style="fill:none;stroke:#00AEEF;stroke-width:0.5;opacity:1.0;" x1="776" x2="776" y1="1919" y2="1933"/>
  <g transform="matrix(1 0 0 1 776 1933)">
   <path d="M3.31055 0.15625Q3.70117 0.15625 3.91602-0.00976562Q4.13086-0.175781 4.26758-0.585938L5.52734-4.0332L11.2891-4.0332L12.5488-0.585938Q12.6855-0.175781 12.9004-0.00976562Q13.1152 0.15625 13.4961 0.15625Q13.8867 0.15625 14.1162-0.0585938Q14.3457-0.273438 14.3457-0.644531Q14.3457-0.869141 14.2383-1.17188L9.6582-13.3691Q9.48242-13.8184 9.17969-14.043Q8.87695-14.2676 8.4082-14.2676Q7.5-14.2676 7.17773-13.3789L2.59766-1.16211Q2.49023-0.859375 2.49023-0.634766Q2.49023-0.263672 2.70996-0.0537109Q2.92969 0.15625 3.31055 0.15625ZM6.00586-5.51758L8.37891-12.0898L8.42773-12.0898L10.8008-5.51758Z"/>
  </g>
  <line style="fill:none;stroke:#00AEEF;stroke-width:0.5;opacity:1.0;" x1="793.197" x2="793.197" y1="1919" y2="1933"/>
  <text style="stroke:none;fill:black;font-family:sans-serif;font-size:13;font-weight:bold;" transform="matrix(1 0 0 1 776 1953)">Margins</text>
  <text style="stroke:none;fill:black;font-family:sans-serif;font-size:13;" transform="matrix(1 0 0 1 776 1971)">Leading and trailing margins on the left and right side of each symbol</text>
  <text style="stroke:none;fill:black;font-family:sans-serif;font-size:13;" transform="matrix(1 0 0 1 776 1989)">can be adjusted by modifying the x-location of the margin guidelines.</text>
  <text style="stroke:none;fill:black;font-family:sans-serif;font-size:13;" transform="matrix(1 0 0 1 776 2007)">Modifications are automatically applied proportionally to all</text>
  <text style="stroke:none;fill:black;font-family:sans-serif;font-size:13;" transform="matrix(1 0 0 1 776 2025)">scales and weights.</text>
  <g transform="matrix(1 0 0 1 1289 1933)">
   <path d="M2.8418 1.86523L4.54102 3.57422Q5.18555 4.22852 5.90332 4.17969Q6.62109 4.13086 7.31445 3.35938L18.0078-8.42773L17.041-9.4043L6.42578 2.27539Q6.16211 2.57812 5.89355 2.61719Q5.625 2.65625 5.27344 2.30469L4.10156 1.14258Q3.75 0.791016 3.79395 0.522461Q3.83789 0.253906 4.14062-0.0195312L15.6152-10.8203L14.6387-11.7871L3.04688-0.898438Q2.30469-0.214844 2.25098 0.498047Q2.19727 1.21094 2.8418 1.86523ZM9.25781-16.3281Q8.94531-16.0254 8.90625-15.6348Q8.86719-15.2441 9.04297-14.9512Q9.21875-14.6777 9.55566-14.541Q9.89258-14.4043 10.3809-14.5215Q11.4746-14.7754 12.5977-14.7314Q13.7207-14.6875 14.7949-13.9844L14.209-12.5293Q13.9551-11.9043 14.0674-11.4404Q14.1797-10.9766 14.5801-10.5664L16.875-8.25195Q17.2363-7.88086 17.5781-7.82227Q17.9199-7.76367 18.3398-7.8418L19.4043-8.03711L20.0684-7.36328L20.0293-6.80664Q20-6.43555 20.1221-6.12305Q20.2441-5.81055 20.6055-5.44922L21.3672-4.70703Q21.7285-4.3457 22.1533-4.33105Q22.5781-4.31641 22.9297-4.66797L25.8398-7.58789Q26.1914-7.93945 26.1816-8.35449Q26.1719-8.76953 25.8105-9.13086L25.0391-9.89258Q24.6875-10.2539 24.3799-10.3857Q24.0723-10.5176 23.7109-10.4883L23.1348-10.4395L22.4902-11.0742L22.7344-12.1973Q22.832-12.6172 22.6953-12.9834Q22.5586-13.3496 22.1191-13.7891L19.9219-15.9766Q18.6719-17.2168 17.2607-17.8369Q15.8496-18.457 14.4189-18.4814Q12.9883-18.5059 11.665-17.959Q10.3418-17.4121 9.25781-16.3281ZM10.752-15.957Q11.6602-16.6211 12.7002-16.9043Q13.7402-17.1875 14.8047-17.085Q15.8691-16.9824 16.8701-16.5137Q17.8711-16.0449 18.7012-15.2051L21.1328-12.793Q21.3086-12.6172 21.3525-12.4512Q21.3965-12.2852 21.3379-12.0312L21.0156-10.5469L22.5195-9.0625L23.5059-9.12109Q23.6914-9.13086 23.7891-9.09668Q23.8867-9.0625 24.0332-8.91602L24.6094-8.33984L22.168-5.89844L21.5918-6.47461Q21.4453-6.62109 21.4062-6.71875Q21.3672-6.81641 21.377-7.01172L21.4453-7.98828L19.9512-9.47266L18.4277-9.21875Q18.1836-9.16992 18.042-9.2041Q17.9004-9.23828 17.7148-9.41406L15.7129-11.416Q15.5176-11.5918 15.4932-11.7529Q15.4688-11.9141 15.5859-12.1875L16.4648-14.2773Q15.293-15.3711 13.8281-15.791Q12.3633-16.2109 10.8398-15.7617Q10.7227-15.7324 10.6885-15.8057Q10.6543-15.8789 10.752-15.957Z"/>
  </g>
  <text style="stroke:none;fill:black;font-family:sans-serif;font-size:13;font-weight:bold;" transform="matrix(1 0 0 1 1289 1953)">Exporting</text>
  <text style="stroke:none;fill:black;font-family:sans-serif;font-size:13;" transform="matrix(1 0 0 1 1289 1971)">Symbols should be outlined when exporting to ensure the</text>
  <text style="stroke:none;fill:black;font-family:sans-serif;font-size:13;" transform="matrix(1 0 0 1 1289 1989)">design is preserved when submitting to Xcode.</text>
  <text id="template-version" style="stroke:none;fill:black;font-family:sans-serif;font-size:13;text-anchor:end;" transform="matrix(1 0 0 1 3036 1933)">Template v.3.0</text>
  <text style="stroke:none;fill:black;font-family:sans-serif;font-size:13;text-anchor:end;" transform="matrix(1 0 0 1 3036 1951)">Requires Xcode 13 or greater</text>
  <text id="descriptive-name" style="stroke:none;fill:black;font-family:sans-serif;font-size:13;text-anchor:end;" transform="matrix(1 0 0 1 3036 1969)">Generated from star.fill</text>
  <text style="stroke:none;fill:black;font-family:sans-serif;font-size:13;text-anchor:end;" transform="matrix(1 0 0 1 3036 1987)">Typeset at 100 points</text>
  <text style="stroke:none;fill:black;font-family:sans-serif;font-size:13;" transform="matrix(1 0 0 1 263 726)">Small</text>
  <text style="stroke:none;fill:black;font-family:sans-serif;font-size:13;" transform="matrix(1 0 0 1 263 1156)">Medium</text>
  <text style="stroke:none;fill:black;font-family:sans-serif;font-size:13;" transform="matrix(1 0 0 1 263 1586)">Large</text>
 </g>
 <g id="Guides">
  <g id="H-reference" style="fill:#27AAE1;stroke:none;" transform="matrix(1 0 0 1 339 696)">
   <path d="M0.976562 0L3.66211 0L29.3457-67.1387L30.0293-67.1387L30.0293-70.459L28.125-70.459ZM11.6699-24.4629L46.9727-24.4629L46.2402-26.709L12.4512-26.709ZM55.127 0L57.7637 0L30.6152-70.459L29.4434-70.459L29.4434-67.1387Z"/>
  </g>
  <line id="Baseline-S" style="fill:none;stroke:#27AAE1;opacity:1;stroke-width:0.5;" x1="263" x2="3036" y1="696" y2="696"/>
  <line id="Capline-S" style="fill:none;stroke:#27AAE1;opacity:1;stroke-width:0.5;" x1="263" x2="3036" y1="625.541" y2="625.541"/>
  <g id="H-reference" style="fill:#27AAE1;stroke:none;" transform="matrix(1 0 0 1 339 1126)">
   <path d="M0.976562 0L3.66211 0L29.3457-67.1387L30.0293-67.1387L30.0293-70.459L28.125-70.459ZM11.6699-24.4629L46.9727-24.4629L46.2402-26.709L12.4512-26.709ZM55.127 0L57.7637 0L30.6152-70.459L29.4434-70.459L29.4434-67.1387Z"/>
  </g>
  <line id="Baseline-M" style="fill:none;stroke:#27AAE1;opacity:1;stroke-width:0.5;" x1="263" x2="3036" y1="1126" y2="1126"/>
  <line id="Capline-M" style="fill:none;stroke:#27AAE1;opacity:1;stroke-width:0.5;" x1="263" x2="3036" y1="1055.54" y2="1055.54"/>
  <g id="H-reference" style="fill:#27AAE1;stroke:none;" transform="matrix(1 0 0 1 339 1556)">
   <path d="M0.976562 0L3.66211 0L29.3457-67.1387L30.0293-67.1387L30.0293-70.459L28.125-70.459ZM11.6699-24.4629L46.9727-24.4629L46.2402-26.709L12.4512-26.709ZM55.127 0L57.7637 0L30.6152-70.459L29.4434-70.459L29.4434-67.1387Z"/>
  </g>
  <line id="Baseline-L" style="fill:none;stroke:#27AAE1;opacity:1;stroke-width:0.5;" x1="263" x2="3036" y1="1556" y2="1556"/>
  <line id="Capline-L" style="fill:none;stroke:#27AAE1;opacity:1;stroke-width:0.5;" x1="263" x2="3036" y1="1485.54" y2="1485.54"/>
  <line id="left-margin-Regular-M" style="fill:none;stroke:#00AEEF;stroke-width:0.5;opacity:1.0;" x1="1385.66" x2="1385.66" y1="1030.79" y2="1150.12"/>
  <line id="right-margin-Regular-M" style="fill:none;stroke:#00AEEF;stroke-width:0.5;opacity:1.0;" x1="1514.03" x2="1514.03" y1="1030.79" y2="1150.12"/>
 </g>
 <g id="Symbols">
  <g id="Black-L" transform="matrix(1 0 0 1 2846.24 1556)">
   <path d="M41.4062 28.418Q44.6289 30.8594 48.4863 30.2979Q52.3438 29.7363 56.4941 26.6602L87.1582 4.10156L117.822 26.6602Q122.021 29.7363 125.879 30.2979Q129.736 30.8594 132.959 28.418Q136.084 26.0254 136.768 22.1924Q137.451 18.3594 135.84 13.623L123.633-22.3633L154.59-44.5312Q158.74-47.5098 160.474-51.001Q162.207-54.4922 160.889-58.3008Q159.619-62.0605 156.177-63.8916Q152.734-65.7227 147.656-65.6738L109.766-65.332L98.2422-101.611Q96.6797-106.543 93.9209-109.229Q91.1621-111.914 87.1582-111.914Q83.2031-111.914 80.4443-109.229Q77.6855-106.543 76.123-101.611L64.5996-65.332L26.6113-65.6738Q21.582-65.7227 18.1641-63.916Q14.7461-62.1094 13.4766-58.3496Q12.1094-54.4922 13.8672-51.001Q15.625-47.5098 19.7754-44.5312L50.7324-22.3633L38.5254 13.623Q36.9141 18.3594 37.5977 22.1924Q38.2812 26.0254 41.4062 28.418Z"/>
  </g>
  <g id="Heavy-L" transform="matrix(1 0 0 1 2550.75 1556)">
   <path d="M40.918 27.6855Q43.7988 29.8828 47.2412 29.3701Q50.6836 28.8574 54.4922 26.0254L85.9375 2.92969L117.383 26.0254Q121.191 28.8574 124.658 29.3701Q128.125 29.8828 131.006 27.6855Q133.789 25.5859 134.399 22.1436Q135.01 18.7012 133.496 14.3555L121.045-22.5586L152.783-45.3125Q156.543-47.998 158.105-51.1475Q159.668-54.2969 158.496-57.666Q157.373-61.0352 154.297-62.6709Q151.221-64.3066 146.582-64.2578L107.715-63.916L95.8496-101.123Q94.4336-105.615 91.9678-108.032Q89.502-110.449 85.9375-110.449Q82.4219-110.449 79.9561-108.032Q77.4902-105.615 76.0254-101.123L64.209-63.916L25.2441-64.2578Q20.6543-64.3066 17.5781-62.6709Q14.502-61.0352 13.3789-57.7148Q12.207-54.2969 13.7695-51.1475Q15.332-47.998 19.1406-45.3125L50.8789-22.5586L38.3789 14.3555Q36.9141 18.7012 37.5244 22.1436Q38.1348 25.5859 40.918 27.6855Z"/>
  </g>
  <g id="Bold-L" transform="matrix(1 0 0 1 2255.41 1556)">
   <path d="M40.3809 26.9043Q42.8711 28.7598 45.874 28.2959Q48.877 27.832 52.2461 25.3418L84.5703 1.61133L116.895 25.3418Q120.312 27.832 123.315 28.2959Q126.318 28.7598 128.809 26.9043Q131.201 25.0977 131.738 22.0947Q132.275 19.0918 130.908 15.1855L118.164-22.8027L150.732-46.1914Q154.15-48.584 155.518-51.3184Q156.885-54.0527 155.859-56.9824Q154.883-59.8633 152.197-61.2793Q149.512-62.6953 145.361-62.6465L105.371-62.3535L93.2129-100.586Q91.9434-104.59 89.7949-106.689Q87.6465-108.789 84.5703-108.789Q81.543-108.789 79.3945-106.689Q77.2461-104.59 75.9766-100.586L63.7695-62.3535L23.7793-62.6465Q19.6289-62.6953 16.9434-61.2793Q14.2578-59.8633 13.3301-56.9824Q12.3047-54.0527 13.6719-51.3184Q15.0391-48.584 18.4082-46.1914L51.0254-22.8027L38.2324 15.1855Q36.9141 19.0918 37.4512 22.0947Q37.9883 25.0977 40.3809 26.9043Z"/>
  </g>
  <g id="Semibold-L" transform="matrix(1 0 0 1 1959.65 1556)">
   <path d="M39.9902 26.3672Q42.1875 27.9785 44.873 27.5635Q47.5586 27.1484 50.6836 24.8535L83.6426 0.683594L116.504 24.8535Q119.678 27.1484 122.363 27.5635Q125.049 27.9785 127.246 26.3672Q129.395 24.707 129.883 22.0215Q130.371 19.3359 129.102 15.7715L116.162-22.9492L149.316-46.7773Q152.441-48.9746 153.687-51.416Q154.932-53.8574 154.053-56.4453Q153.174-59.0332 150.757-60.3027Q148.34-61.5723 144.482-61.5234L103.76-61.2793L91.4062-100.195Q90.1855-103.857 88.2812-105.762Q86.377-107.666 83.6426-107.666Q80.9082-107.666 78.9795-105.762Q77.0508-103.857 75.8789-100.195L63.4766-61.2793L22.7051-61.5234Q18.8965-61.5723 16.4795-60.3027Q14.0625-59.0332 13.2324-56.4941Q12.3535-53.8574 13.5986-51.416Q14.8438-48.9746 17.9199-46.7773L51.123-22.9492L38.1348 15.7715Q36.9141 19.3359 37.3779 22.0215Q37.8418 24.707 39.9902 26.3672Z"/>
  </g>
  <g id="Medium-L" transform="matrix(1 0 0 1 1663.65 1556)">
   <path d="M39.7461 25.9277Q41.6992 27.3926 44.165 27.002Q46.6309 26.6113 49.5117 24.5117L82.9102 0L116.26 24.5117Q119.189 26.6113 121.631 27.002Q124.072 27.3926 126.123 25.9277Q128.027 24.4629 128.467 22.0215Q128.906 19.5801 127.734 16.1621L114.6-23.0469L148.242-47.2168Q151.172-49.2676 152.295-51.4893Q153.418-53.7109 152.637-56.1035Q151.855-58.3984 149.658-59.5703Q147.461-60.7422 143.848-60.6934L102.539-60.4492L89.9902-99.9023Q88.8672-103.32 87.1338-105.054Q85.4004-106.787 82.9102-106.787Q80.4199-106.787 78.6621-105.054Q76.9043-103.32 75.8301-99.9023L63.2324-60.4492L21.9238-60.6934Q18.3594-60.7422 16.1621-59.5947Q13.9648-58.4473 13.1836-56.1035Q12.4023-53.7109 13.5254-51.4893Q14.6484-49.2676 17.5293-47.2168L51.1719-23.0469L38.0371 16.1621Q36.9141 19.5801 37.3291 22.0215Q37.7441 24.4629 39.7461 25.9277Z"/>
  </g>
  <g id="Regular-L" transform="matrix(1 0 0 1 1367.86 1556)">
   <path d="M39.3555 25.3906Q41.0645 26.6602 43.2129 26.2939Q45.3613 25.9277 47.998 24.0234L81.9824-0.878906L115.918 24.0234Q118.555 25.9277 120.703 26.2939Q122.852 26.6602 124.609 25.3906Q126.27 24.1211 126.66 21.9727Q127.051 19.8242 125.977 16.748L112.646-23.1934L146.875-47.8027Q149.512-49.6582 150.513-51.6113Q151.514-53.5645 150.83-55.6152Q150.146-57.6172 148.218-58.6426Q146.289-59.668 143.018-59.6191L100.977-59.375L88.1836-99.5117Q87.1582-102.588 85.6445-104.126Q84.1309-105.664 81.9824-105.664Q79.834-105.664 78.2959-104.126Q76.7578-102.588 75.7812-99.5117L62.9395-59.375L20.8984-59.6191Q17.6758-59.668 15.7227-58.6426Q13.7695-57.6172 13.1348-55.6152Q12.4512-53.5645 13.4521-51.6113Q14.4531-49.6582 17.041-47.8027L51.2695-23.1934L37.9395 16.748Q36.9141 19.8242 37.2803 21.9727Q37.6465 24.1211 39.3555 25.3906Z"/>
  </g>
  <g id="Light-L" transform="matrix(1 0 0 1 1072.27 1556)">
   <path d="M38.9648 24.5605Q40.332 25.5859 42.0898 25.3174Q43.8477 25.0488 46.0449 23.4863L80.8594-2.00195L115.625 23.4863Q117.822 25.0488 119.58 25.3174Q121.338 25.5859 122.754 24.5605Q124.121 23.5352 124.463 21.8018Q124.805 20.0684 123.926 17.4316L110.352-23.4863L145.41-48.7305Q147.607-50.293 148.389-51.8799Q149.17-53.4668 148.633-55.127Q148.096-56.7383 146.533-57.6172Q144.971-58.4961 142.188-58.4473L99.1211-58.252L85.9863-99.3652Q85.1074-101.953 83.8379-103.174Q82.5684-104.395 80.8594-104.395Q79.1016-104.395 77.832-103.174Q76.5625-101.953 75.7324-99.3652L62.5488-58.252L19.4824-58.4473Q16.748-58.4961 15.1855-57.6172Q13.623-56.7383 13.0859-55.127Q12.5488-53.4668 13.3301-51.8799Q14.1113-50.293 16.3086-48.7305L51.3184-23.4863L37.7441 17.4316Q36.9141 20.0684 37.2314 21.8018Q37.5488 23.5352 38.9648 24.5605Z"/>
  </g>
  <g id="Thin-L" transform="matrix(1 0 0 1 777.052 1556)">
   <path d="M38.4277 23.4863Q39.3555 24.1699 40.5762 24.0479Q41.7969 23.9258 43.457 22.7539L79.3945-3.51562L115.234 22.7539Q116.895 23.9258 118.115 24.0479Q119.336 24.1699 120.312 23.4863Q121.24 22.8027 121.533 21.6064Q121.826 20.4102 121.191 18.3594L107.324-23.8281L143.408-49.9023Q145.068-51.123 145.557-52.2461Q146.045-53.3691 145.703-54.4922Q145.312-55.6152 144.263-56.2744Q143.213-56.9336 141.064-56.9336L96.6309-56.7871L83.0566-99.1211Q82.373-101.074 81.4697-101.904Q80.5664-102.734 79.3945-102.734Q78.1738-102.734 77.2461-101.904Q76.3184-101.074 75.6836-99.1211L62.0605-56.7871L17.627-56.9336Q15.5273-56.9336 14.4531-56.2744Q13.3789-55.6152 13.0371-54.4922Q12.6953-53.3691 13.1592-52.2461Q13.623-51.123 15.2832-49.9023L51.3672-23.8281L37.5 18.3594Q36.8652 20.4102 37.1582 21.6064Q37.4512 22.8027 38.4277 23.4863Z"/>
  </g>
  <g id="Ultralight-L" transform="matrix(1 0 0 1 481.122 1556)">
   <path d="M38.1348 22.9492Q38.8672 23.4375 39.8193 23.3887Q40.7715 23.3398 42.1387 22.4121L78.6133-4.29688L115.039 22.4121Q116.406 23.3398 117.358 23.3887Q118.311 23.4375 119.092 22.9492Q119.775 22.4121 120.044 21.4844Q120.312 20.5566 119.824 18.8477L105.811-24.0234L142.432-50.5371Q143.799-51.5137 144.116-52.417Q144.434-53.3203 144.189-54.1504Q143.945-55.0293 143.115-55.5664Q142.285-56.1035 140.527-56.1035L95.4102-56.0547L81.543-99.0234Q81.0059-100.635 80.249-101.245Q79.4922-101.855 78.6133-101.855Q77.6855-101.855 76.9531-101.245Q76.2207-100.635 75.6348-99.0234L61.8164-56.0547L16.6992-56.1035Q14.8926-56.1035 14.0869-55.5664Q13.2812-55.0293 12.9883-54.1504Q12.793-53.3203 13.1104-52.417Q13.4277-51.5137 14.7949-50.5371L51.416-24.0234L37.4023 18.8477Q36.8652 20.5566 37.1338 21.4844Q37.4023 22.4121 38.1348 22.9492Z"/>
  </g>
  <g id="Black-M" transform="matrix(1 0 0 1 2865.21 1126)">
   <path d="M32.3242 14.4531Q35.0098 16.5039 38.208 16.04Q41.4062 15.5762 44.7754 13.0859L68.2129-4.15039L91.5527 13.0859Q94.9707 15.5762 98.1689 16.04Q101.367 16.5039 104.053 14.4531Q106.689 12.4512 107.251 9.27734Q107.812 6.10352 106.494 2.24609L97.2168-25.1953L120.801-42.0898Q124.219-44.5312 125.635-47.4121Q127.051-50.293 125.928-53.4668Q124.854-56.6406 122.021-58.1543Q119.189-59.668 115.088-59.6191L86.1816-59.375L77.3926-87.0605Q76.123-91.0645 73.8037-93.2617Q71.4844-95.459 68.2129-95.459Q64.8926-95.459 62.5732-93.2617Q60.2539-91.0645 58.9844-87.0605L50.1953-59.375L21.2402-59.6191Q17.1875-59.668 14.3555-58.1543Q11.5234-56.6406 10.4492-53.5156Q9.32617-50.3418 10.7666-47.4365Q12.207-44.5312 15.5762-42.0898L39.1602-25.1953L29.8828 2.24609Q28.5645 6.10352 29.1504 9.27734Q29.7363 12.4512 32.3242 14.4531Z"/>
  </g>
  <g id="Heavy-M" transform="matrix(1 0 0 1 2569.45 1126)">
   <path d="M31.9336 13.916Q34.375 15.7715 37.2559 15.332Q40.1367 14.8926 43.2617 12.5977L67.2363-5.0293L91.2109 12.5977Q94.3359 14.8926 97.2412 15.332Q100.146 15.7715 102.539 13.916Q104.883 12.1094 105.396 9.25293Q105.908 6.39648 104.688 2.83203L95.166-25.3418L119.336-42.6758Q122.51-44.9219 123.804-47.5098Q125.098-50.0977 124.072-52.9785Q123.145-55.8105 120.581-57.1777Q118.018-58.5449 114.209-58.4961L84.5703-58.252L75.5371-86.6211Q74.3652-90.2832 72.29-92.2852Q70.2148-94.2871 67.2363-94.2871Q64.2578-94.2871 62.1826-92.2852Q60.1074-90.2832 58.9355-86.6211L49.9023-58.252L20.2637-58.4961Q16.5039-58.5449 13.916-57.1777Q11.3281-55.8105 10.4004-52.9785Q9.375-50.1465 10.6934-47.5342Q12.0117-44.9219 15.1367-42.6758L39.3066-25.3418L29.7852 2.83203Q28.5645 6.39648 29.1016 9.25293Q29.6387 12.1094 31.9336 13.916Z"/>
  </g>
  <g id="Bold-M" transform="matrix(1 0 0 1 2273.79 1126)">
   <path d="M31.543 13.3301Q33.6426 14.9414 36.2061 14.5264Q38.7695 14.1113 41.5527 12.0605L66.2109-6.05469L90.8203 12.0605Q93.6523 14.1113 96.1914 14.5264Q98.7305 14.9414 100.83 13.3301Q102.93 11.7676 103.369 9.22852Q103.809 6.68945 102.686 3.4668L92.9199-25.4883L117.773-43.3105Q120.605-45.3125 121.753-47.6074Q122.9-49.9023 122.07-52.3926Q121.24-54.8828 118.97-56.0791Q116.699-57.2754 113.232-57.2266L82.7637-56.9824L73.5352-86.084Q72.4609-89.4531 70.6299-91.2354Q68.7988-93.0176 66.2109-93.0176Q63.623-93.0176 61.792-91.2354Q59.9609-89.4531 58.8867-86.084L49.6094-56.9824L19.1406-57.2266Q15.7227-57.2754 13.4521-56.0791Q11.1816-54.8828 10.3516-52.4414Q9.47266-49.9512 10.6445-47.6318Q11.8164-45.3125 14.6484-43.3105L39.4531-25.4883L29.7363 3.4668Q28.6133 6.68945 29.0527 9.22852Q29.4922 11.7676 31.543 13.3301Z"/>
  </g>
  <g id="Semibold-M" transform="matrix(1 0 0 1 1977.81 1126)">
   <path d="M31.25 12.9395Q33.1543 14.3555 35.4736 13.9648Q37.793 13.5742 40.3809 11.6699L65.4297-6.73828L90.5273 11.6699Q93.1152 13.5742 95.4346 13.9648Q97.7539 14.3555 99.6582 12.9395Q101.514 11.5234 101.904 9.2041Q102.295 6.88477 101.27 3.85742L91.3574-25.5859L116.65-43.7012Q119.287-45.6055 120.337-47.6807Q121.387-49.7559 120.654-52.002Q119.873-54.1992 117.822-55.2734Q115.771-56.3477 112.5-56.2988L81.543-56.1035L72.1191-85.7422Q71.0938-88.8184 69.4336-90.4541Q67.7734-92.0898 65.4297-92.0898Q63.1348-92.0898 61.4746-90.4541Q59.8145-88.8184 58.8379-85.7422L49.4141-56.1035L18.3594-56.2988Q15.1367-56.3477 13.0859-55.2734Q11.0352-54.1992 10.3027-52.002Q9.52148-49.7559 10.5713-47.6807Q11.6211-45.6055 14.2578-43.7012L39.5508-25.5859L29.6387 3.85742Q28.6133 6.88477 29.0039 9.2041Q29.3945 11.5234 31.25 12.9395Z"/>
  </g>
  <g id="Medium-M" transform="matrix(1 0 0 1 1681.64 1126)">
   <path d="M31.0547 12.5977Q32.7637 13.9648 34.9121 13.5742Q37.0605 13.1836 39.502 11.4258L64.8926-7.27539L90.332 11.4258Q92.7734 13.1836 94.8975 13.5742Q97.0215 13.9648 98.7793 12.5977Q100.488 11.3281 100.854 9.2041Q101.221 7.08008 100.195 4.19922L90.1855-25.6348L115.771-44.043Q118.311-45.8008 119.287-47.7295Q120.264-49.6582 119.58-51.709Q118.896-53.7109 116.992-54.7119Q115.088-55.7129 112.012-55.6641L80.5664-55.4688L71.0449-85.4492Q70.0684-88.3789 68.5547-89.8926Q67.041-91.4062 64.8926-91.4062Q62.793-91.4062 61.2549-89.8926Q59.7168-88.3789 58.7891-85.4492L49.2188-55.4688L17.7734-55.6641Q14.7461-55.7129 12.8418-54.7119Q10.9375-53.7109 10.2539-51.709Q9.57031-49.6582 10.5469-47.7295Q11.5234-45.8008 14.0137-44.043L39.6484-25.6348L29.5898 4.19922Q28.6133 7.08008 28.9795 9.2041Q29.3457 11.3281 31.0547 12.5977Z"/>
  </g>
  <g id="Regular-M" transform="matrix(1 0 0 1 1385.66 1126)">
   <path d="M30.7617 12.207Q32.2754 13.3789 34.1797 13.0127Q36.084 12.6465 38.3301 11.0352L64.1602-7.95898L90.0391 11.0352Q92.2852 12.6465 94.1895 13.0127Q96.0938 13.3789 97.6074 12.207Q99.1211 11.084 99.4385 9.17969Q99.7559 7.27539 98.8281 4.63867L88.623-25.7324L114.697-44.4824Q116.992-46.0938 117.871-47.8027Q118.75-49.5117 118.164-51.3184Q117.578-53.0762 115.869-53.9551Q114.16-54.834 111.328-54.7852L79.3457-54.5898L69.6289-85.1074Q68.75-87.793 67.4072-89.1602Q66.0645-90.5273 64.1602-90.5273Q62.3047-90.5273 60.9619-89.1602Q59.6191-87.793 58.7402-85.1074L49.0234-54.5898L17.041-54.7852Q14.209-54.834 12.5-53.9551Q10.791-53.0762 10.2051-51.3184Q9.61914-49.5117 10.498-47.8027Q11.377-46.0938 13.6719-44.4824L39.7461-25.7324L29.541 4.63867Q28.6133 7.27539 28.9307 9.17969Q29.248 11.084 30.7617 12.207Z"/>
  </g>
  <g id="Light-M" transform="matrix(1 0 0 1 1089.95 1126)">
   <path d="M30.4199 11.4746Q31.6406 12.4023 33.1787 12.1338Q34.7168 11.8652 36.5723 10.5469L63.1836-8.98438L89.7949 10.5469Q91.6504 11.8652 93.1885 12.1338Q94.7266 12.4023 95.9473 11.4746Q97.168 10.5469 97.4609 9.0332Q97.7539 7.51953 96.9727 5.27344L86.5723-25.9766L113.379-45.2637Q115.283-46.6309 115.967-48.0225Q116.65-49.4141 116.162-50.8789Q115.723-52.2949 114.355-53.0273Q112.988-53.7598 110.596-53.7598L77.6855-53.6133L67.627-84.9609Q66.8945-87.207 65.7959-88.3057Q64.6973-89.4043 63.1836-89.4043Q61.6699-89.4043 60.5713-88.3057Q59.4727-87.207 58.6914-84.9609L48.6816-53.6133L15.7715-53.7598Q13.3789-53.7598 12.0117-53.0273Q10.6445-52.2949 10.1562-50.8789Q9.7168-49.4141 10.4004-48.0225Q11.084-46.6309 12.9883-45.2637L39.7949-25.9766L29.3945 5.27344Q28.6133 7.51953 28.8818 9.0332Q29.1504 10.5469 30.4199 11.4746Z"/>
  </g>
  <g id="Thin-M" transform="matrix(1 0 0 1 794.581 1126)">
   <path d="M29.9316 10.498Q30.7617 11.1328 31.8115 10.9863Q32.8613 10.8398 34.2285 9.86328L61.8164-10.3027L89.4531 9.86328Q90.8203 10.8398 91.8701 10.9863Q92.9199 11.1328 93.7988 10.498Q94.6289 9.91211 94.8486 8.8623Q95.0684 7.8125 94.5312 6.10352L83.8867-26.3184L111.621-46.3379Q113.037-47.3633 113.452-48.3398Q113.867-49.3164 113.574-50.293Q113.232-51.2695 112.305-51.8311Q111.377-52.3926 109.619-52.3438L75.4883-52.2461L65.0391-84.7656Q64.4531-86.4746 63.6475-87.1826Q62.8418-87.8906 61.8164-87.8906Q60.8398-87.8906 60.0342-87.1826Q59.2285-86.4746 58.6914-84.7656L48.1934-52.2461L14.1113-52.3438Q12.3047-52.3926 11.377-51.8311Q10.4492-51.2695 10.1562-50.293Q9.81445-49.3164 10.2539-48.3398Q10.6934-47.3633 12.1094-46.3379L39.7949-26.3184L29.1504 6.10352Q28.6133 7.8125 28.833 8.8623Q29.0527 9.91211 29.9316 10.498Z"/>
  </g>
  <g id="Ultralight-M" transform="matrix(1 0 0 1 498.554 1126)">
   <path d="M29.6875 10.0098Q30.3223 10.4492 31.1279 10.4004Q31.9336 10.3516 33.0566 9.52148L61.1816-10.9863L89.2578 9.52148Q90.3809 10.3516 91.1865 10.4004Q91.9922 10.4492 92.6758 10.0098Q93.3105 9.52148 93.5059 8.74023Q93.7012 7.95898 93.3105 6.54297L82.4707-26.5137L110.693-46.875Q111.865-47.7051 112.158-48.4863Q112.451-49.2676 112.207-50Q112.012-50.7324 111.304-51.1963Q110.596-51.6602 109.082-51.6602L74.3652-51.6113L63.6719-84.668Q63.2324-86.084 62.5732-86.5967Q61.9141-87.1094 61.1816-87.1094Q60.4004-87.1094 59.7656-86.5967Q59.1309-86.084 58.6426-84.668L47.998-51.6113L13.2324-51.6602Q11.7676-51.6602 11.0596-51.1963Q10.3516-50.7324 10.1074-50Q9.91211-49.2676 10.1807-48.4863Q10.4492-47.7051 11.6211-46.875L39.8438-26.5137L29.0527 6.54297Q28.6133 7.95898 28.8086 8.74023Q29.0039 9.52148 29.6875 10.0098Z"/>
  </g>
  <g id="Black-S" transform="matrix(1 0 0 1 2879.74 696)">
   <path d="M25.4395 3.80859Q27.5879 5.46875 30.1758 5.10254Q32.7637 4.73633 35.4492 2.73438L53.6621-10.6445L71.8262 2.73438Q74.5605 4.73633 77.1484 5.10254Q79.7363 5.46875 81.8848 3.80859Q84.0332 2.19727 84.4971-0.366211Q84.9609-2.92969 83.8867-6.00586L76.6602-27.3438L95.0195-40.4785Q97.7539-42.4316 98.877-44.7754Q100-47.1191 99.1211-49.6582Q98.2422-52.2461 95.9717-53.4668Q93.7012-54.6875 90.3809-54.6387L67.9199-54.4434L61.084-75.9766Q60.0586-79.1504 58.2031-80.9326Q56.3477-82.7148 53.6621-82.7148Q50.9766-82.7148 49.1211-80.9326Q47.2656-79.1504 46.2402-75.9766L39.4043-54.4434L16.8945-54.6387Q13.623-54.6875 11.3525-53.4668Q9.08203-52.2461 8.20312-49.707Q7.27539-47.1191 8.44727-44.7754Q9.61914-42.4316 12.3047-40.4785L30.6641-27.3438L23.4375-6.00586Q22.3633-2.92969 22.8516-0.366211Q23.3398 2.19727 25.4395 3.80859Z"/>
  </g>
  <g id="Heavy-S" transform="matrix(1 0 0 1 2583.71 696)">
   <path d="M25.1465 3.4668Q27.1484 4.98047 29.5166 4.61426Q31.8848 4.24805 34.375 2.39258L52.9785-11.2793L71.582 2.39258Q74.1211 4.24805 76.4893 4.61426Q78.8574 4.98047 80.8105 3.4668Q82.7637 2.00195 83.1787-0.366211Q83.5938-2.73438 82.5684-5.61523L75.1953-27.4414L93.9453-40.8691Q96.5332-42.6758 97.5586-44.8242Q98.584-46.9727 97.8027-49.2676Q97.0215-51.6113 94.9219-52.7344Q92.8223-53.8574 89.7461-53.8086L66.748-53.6133L59.7656-75.5859Q58.8379-78.5645 57.1289-80.2246Q55.4199-81.8848 52.9785-81.8848Q50.5371-81.8848 48.8525-80.2246Q47.168-78.5645 46.1914-75.5859L39.209-53.6133L16.2109-53.8086Q13.1348-53.8574 11.0352-52.7344Q8.93555-51.6113 8.1543-49.3164Q7.32422-46.9727 8.39844-44.8242Q9.47266-42.6758 12.0117-40.8691L30.7617-27.4414L23.3887-5.61523Q22.3633-2.73438 22.8027-0.366211Q23.2422 2.00195 25.1465 3.4668Z"/>
  </g>
  <g id="Bold-S" transform="matrix(1 0 0 1 2287.76 696)">
   <path d="M24.8535 3.07617Q26.6113 4.39453 28.7354 4.05273Q30.8594 3.71094 33.2031 2.00195L52.2461-12.0117L71.2891 2.00195Q73.6328 3.71094 75.7568 4.05273Q77.8809 4.39453 79.5898 3.07617Q81.3477 1.75781 81.6895-0.366211Q82.0312-2.49023 81.1035-5.17578L73.584-27.5391L92.7734-41.3086Q95.1172-42.9688 96.0938-44.873Q97.0703-46.7773 96.3379-48.877Q95.6543-50.9277 93.7744-51.9043Q91.8945-52.8809 89.0137-52.8809L65.4785-52.6855L58.3008-75.1953Q57.4219-77.9297 55.9082-79.4189Q54.3945-80.9082 52.2461-80.9082Q50.0488-80.9082 48.5596-79.4189Q47.0703-77.9297 46.1426-75.1953L39.0137-52.6855L15.4297-52.8809Q12.5977-52.8809 10.7178-51.9043Q8.83789-50.9277 8.10547-48.877Q7.37305-46.7773 8.37402-44.873Q9.375-42.9688 11.6699-41.3086L30.9082-27.5391L23.3398-5.17578Q22.4121-2.49023 22.7783-0.366211Q23.1445 1.75781 24.8535 3.07617Z"/>
  </g>
  <g id="Semibold-S" transform="matrix(1 0 0 1 1991.56 696)">
   <path d="M24.6582 2.7832Q26.2695 4.00391 28.2227 3.66211Q30.1758 3.32031 32.373 1.70898L51.709-12.5L71.0449 1.70898Q73.2422 3.32031 75.1953 3.66211Q77.1484 4.00391 78.7598 2.7832Q80.3223 1.5625 80.6396-0.366211Q80.957-2.29492 80.0781-4.83398L72.4121-27.5879L91.9434-41.6016Q94.1406-43.1152 95.0439-44.873Q95.9473-46.6309 95.3125-48.5352Q94.6777-50.4395 92.9443-51.3428Q91.2109-52.2461 88.4766-52.1973L64.5508-52.002L57.2754-74.9023Q56.4453-77.4902 55.0537-78.8818Q53.6621-80.2734 51.709-80.2734Q49.707-80.2734 48.3398-78.8818Q46.9727-77.4902 46.0938-74.9023L38.8184-52.002L14.8926-52.1973Q12.207-52.2461 10.4492-51.3428Q8.69141-50.4395 8.05664-48.584Q7.42188-46.6309 8.3252-44.873Q9.22852-43.1152 11.4258-41.6016L30.957-27.5879L23.291-4.83398Q22.4121-2.29492 22.7539-0.366211Q23.0957 1.5625 24.6582 2.7832Z"/>
  </g>
  <g id="Medium-S" transform="matrix(1 0 0 1 1695.26 696)">
   <path d="M24.4629 2.58789Q25.9766 3.71094 27.8076 3.39355Q29.6387 3.07617 31.7383 1.51367L51.3184-12.8906L70.8984 1.51367Q72.998 3.07617 74.8291 3.39355Q76.6602 3.71094 78.125 2.58789Q79.5898 1.41602 79.8828-0.366211Q80.1758-2.14844 79.3457-4.58984L71.582-27.6367L91.3574-41.7969Q93.4082-43.2617 94.2871-44.9219Q95.166-46.582 94.5801-48.3398Q93.9453-50.0977 92.3096-50.9033Q90.6738-51.709 88.0859-51.709L63.8672-51.5137L56.543-74.707Q55.7129-77.1484 54.4189-78.4424Q53.125-79.7363 51.3184-79.7363Q49.4629-79.7363 48.1934-78.4424Q46.9238-77.1484 46.0938-74.707L38.7207-51.5137L14.502-51.709Q11.9629-51.709 10.3027-50.9033Q8.64258-50.0977 8.05664-48.3398Q7.42188-46.582 8.30078-44.9219Q9.17969-43.2617 11.2793-41.7969L31.0059-27.6367L23.291-4.58984Q22.4609-2.14844 22.7295-0.366211Q22.998 1.41602 24.4629 2.58789Z"/>
  </g>
  <g id="Regular-S" transform="matrix(1 0 0 1 1399.06 696)">
   <path d="M24.2676 2.29492Q25.6348 3.32031 27.2949 3.00293Q28.9551 2.68555 30.9082 1.2207L50.7812-13.3789L70.7031 1.2207Q72.6562 2.68555 74.3164 3.00293Q75.9766 3.32031 77.2949 2.29492Q78.6133 1.26953 78.8574-0.366211Q79.1016-2.00195 78.3203-4.29688L70.459-27.6855L90.5273-42.0898Q92.4805-43.457 93.2861-44.9463Q94.0918-46.4355 93.5547-48.0469Q93.0176-49.6094 91.5283-50.3418Q90.0391-51.0742 87.5977-51.0742L62.9883-50.8789L55.5176-74.4141Q54.7852-76.709 53.6133-77.9053Q52.4414-79.1016 50.7812-79.1016Q49.1211-79.1016 47.9736-77.9053Q46.8262-76.709 46.0449-74.4141L38.5742-50.8789L13.9648-51.0742Q11.5723-51.0742 10.0586-50.3418Q8.54492-49.6094 8.00781-48.0469Q7.4707-46.4355 8.27637-44.9463Q9.08203-43.457 11.0352-42.0898L31.1035-27.6855L23.2422-4.29688Q22.4609-2.00195 22.7051-0.366211Q22.9492 1.26953 24.2676 2.29492Z"/>
  </g>
  <g id="Light-S" transform="matrix(1 0 0 1 1103.26 696)">
   <path d="M23.9258 1.66016Q25.0488 2.44141 26.3916 2.22168Q27.7344 2.00195 29.3457 0.78125L49.8535-14.2578L70.459 0.78125Q72.0703 2.00195 73.4131 2.22168Q74.7559 2.44141 75.8301 1.66016Q76.9043 0.830078 77.124-0.488281Q77.3438-1.80664 76.6602-3.75977L68.6035-27.8809L89.3555-42.8223Q90.9668-43.9453 91.6016-45.166Q92.2363-46.3867 91.7969-47.6562Q91.3574-48.9258 90.1611-49.5361Q88.9648-50.1465 86.9141-50.1465L61.5234-50L53.7598-74.2676Q53.125-76.1719 52.1729-77.1484Q51.2207-78.125 49.8535-78.125Q48.5352-78.125 47.6074-77.1484Q46.6797-76.1719 45.9961-74.2676L38.2324-50L12.8418-50.1465Q10.8398-50.1465 9.61914-49.5361Q8.39844-48.9258 7.95898-47.6562Q7.56836-46.3867 8.17871-45.166Q8.78906-43.9453 10.4492-42.8223L31.1523-27.8809L23.0957-3.75977Q22.4121-1.80664 22.6318-0.488281Q22.8516 0.830078 23.9258 1.66016Z"/>
  </g>
  <g id="Thin-S" transform="matrix(1 0 0 1 807.741 696)">
   <path d="M23.4863 0.78125Q24.2188 1.31836 25.1465 1.2207Q26.0742 1.12305 27.2461 0.195312L48.6816-15.4297L70.1172 0.195312Q71.3379 1.12305 72.2412 1.2207Q73.1445 1.31836 73.877 0.78125Q74.6094 0.244141 74.8047-0.65918Q75-1.5625 74.5117-2.97852L66.2109-28.1738L87.7441-43.75Q88.916-44.5801 89.3311-45.4346Q89.7461-46.2891 89.4531-47.1191Q89.209-47.998 88.3789-48.4619Q87.5488-48.9258 86.0352-48.9258L59.5215-48.8281L51.416-74.1211Q50.9766-75.5371 50.293-76.1475Q49.6094-76.7578 48.6816-76.7578Q47.8027-76.7578 47.1191-76.1475Q46.4355-75.5371 45.9961-74.1211L37.8418-48.8281L11.3281-48.9258Q9.86328-48.9258 9.0332-48.4619Q8.20312-47.998 7.95898-47.1191Q7.66602-46.2891 8.05664-45.4346Q8.44727-44.5801 9.61914-43.75L31.1523-28.1738L22.9004-2.97852Q22.4121-1.5625 22.583-0.65918Q22.7539 0.244141 23.4863 0.78125Z"/>
  </g>
  <g id="Ultralight-S" transform="matrix(1 0 0 1 511.64 696)">
   <path d="M23.291 0.341797Q23.8281 0.732422 24.5361 0.683594Q25.2441 0.634766 26.1719-0.0976562L48.0469-16.0645L69.9219-0.0976562Q70.9473 0.634766 71.6553 0.683594Q72.3633 0.732422 72.9004 0.341797Q73.4375-0.0488281 73.6084-0.732422Q73.7793-1.41602 73.3887-2.63672L64.9414-28.3203L86.9629-44.2383Q87.8906-44.9219 88.1836-45.5811Q88.4766-46.2402 88.2324-46.875Q88.0859-47.5098 87.4512-47.9004Q86.8164-48.291 85.5957-48.291L58.5449-48.2422L50.1953-74.0234Q49.8535-75.1465 49.3164-75.6348Q48.7793-76.123 48.0469-76.123Q47.4121-76.123 46.875-75.6348Q46.3379-75.1465 45.9473-74.0234L37.5977-48.2422L10.5469-48.291Q9.32617-48.291 8.71582-47.9004Q8.10547-47.5098 7.91016-46.875Q7.71484-46.2402 7.9834-45.5811Q8.25195-44.9219 9.22852-44.2383L31.2012-28.3203L22.8027-2.63672Q22.3633-1.41602 22.5342-0.732422Q22.7051-0.0488281 23.291 0.341797Z"/>
  </g>
 </g>
</svg>
